<svg width="114" height="113" viewBox="0 0 114 113" fill="none" xmlns="http://www.w3.org/2000/svg">
<path opacity="0.23" d="M88.7491 56.3077C88.7521 55.2598 89.6009 54.4111 90.6488 54.4082H90.9022V49.7282H88.9672C87.2439 49.7282 85.8469 51.1252 85.8469 52.8485V59.0891C85.8469 59.3475 86.0565 59.5571 86.3149 59.5571H86.315H88.2807C88.5391 59.5572 88.7487 59.3477 88.7488 59.0892V59.0891L88.7491 56.3077Z" fill="#252A34"/>
<path opacity="0.23" d="M92.3997 50.6171H90.9019V53.7061H92.3997V50.6171Z" fill="#252A34"/>
<path opacity="0.23" d="M93.0698 49.0492H93.7578C95.2308 49.0492 96.4249 50.2433 96.4249 51.7163V52.607C96.4249 54.0801 95.2308 55.2742 93.7578 55.2742H93.0698C92.6998 55.2742 92.3998 54.9741 92.3998 54.6041V49.7188C92.3998 49.3488 92.6998 49.0487 93.0698 49.0487V49.0492Z" fill="#252A34"/>
<path opacity="0.21" d="M63.6616 97.6071C63.6646 98.6549 64.5134 99.5036 65.5612 99.5065H65.8147V104.187H63.8797C62.1564 104.187 60.7594 102.79 60.7594 101.066V94.8261C60.7595 94.5676 60.969 94.3581 61.2275 94.3581H63.1932C63.4518 94.3581 63.6612 94.5676 63.6613 94.8261L63.6616 97.6071Z" fill="#252A34"/>
<path opacity="0.21" d="M67.3122 100.209H65.8145V103.298H67.3122V100.209Z" fill="#252A34"/>
<path opacity="0.21" d="M67.9823 98.6407H68.6703C70.1434 98.6407 71.3374 99.8347 71.3374 101.308V102.198C71.3374 103.672 70.1434 104.866 68.6703 104.866H67.9823C67.6123 104.866 67.3123 104.566 67.3123 104.196V99.3108C67.3123 98.9408 67.6123 98.6408 67.9823 98.6407Z" fill="#252A34"/>
<g opacity="0.23">
<path opacity="0.23" d="M62.5125 95.1125H61.8375V86.2616C61.8415 82.7015 64.7265 79.8166 68.2866 79.8125C71.4754 79.8126 74.0606 77.2276 74.0606 74.0387C74.0606 74.0351 74.0606 74.0315 74.0606 74.0279L74.0531 69.8851L74.7281 69.8837L74.7356 74.0265C74.7423 77.5883 71.8603 80.4809 68.2985 80.4875C68.2946 80.4875 68.2905 80.4875 68.2866 80.4875C65.0991 80.4911 62.5161 83.0741 62.5125 86.2616V95.1125Z" fill="#252A34"/>
</g>
<g opacity="0.23">
<path opacity="0.23" d="M80.9062 78.8419C77.1491 78.8375 74.1044 75.7928 74.1 72.0356V69.9544C74.1 69.768 74.2511 69.6169 74.4375 69.6169C74.6239 69.6169 74.775 69.768 74.775 69.9544V72.0356C74.775 75.4219 77.5201 78.1669 80.9062 78.1669C84.2925 78.1669 87.0375 75.4218 87.0375 72.0356V59.4919C87.0375 59.3055 87.1886 59.1544 87.375 59.1544C87.5614 59.1544 87.7125 59.3055 87.7125 59.4919V72.0356C87.7081 75.7928 84.6634 78.8375 80.9062 78.8419Z" fill="#252A34"/>
</g>
<path d="M62.5125 93.875H61.8375V85.0241C61.8415 81.464 64.7265 78.5791 68.2866 78.575C71.4754 78.5751 74.0606 75.9901 74.0606 72.8012C74.0606 72.7976 74.0606 72.794 74.0606 72.7904L74.0531 66.0601L74.7281 66.0587L74.7356 72.789C74.7423 76.3508 71.8603 79.2434 68.2985 79.25C68.2946 79.25 68.2905 79.25 68.2866 79.25C65.0991 79.2536 62.5161 81.8366 62.5125 85.0241V93.875Z" fill="#EEF2F4"/>
<path d="M62.5125 94.0437H61.8375C61.7443 94.0437 61.6687 93.9681 61.6687 93.875V85.0241C61.6729 81.3791 64.6415 78.4104 68.2863 78.4062C69.7838 78.4062 71.1913 77.8233 72.25 76.7645C73.3086 75.7059 73.8918 74.2983 73.8918 72.8012L73.8843 66.0603C73.8842 65.9671 73.9596 65.8915 74.0527 65.8913L74.7277 65.89C74.7278 65.89 74.7279 65.89 74.7281 65.89C74.7727 65.89 74.8155 65.9076 74.8472 65.9392C74.8789 65.9708 74.8968 66.0138 74.8968 66.0586L74.9043 72.7889C74.9111 76.4379 71.9478 79.4121 68.2988 79.4189H68.2865C65.1994 79.4223 62.6847 81.9371 62.6812 85.0244V93.875C62.6812 93.9681 62.6056 94.0437 62.5125 94.0437ZM62.0062 93.7062H62.3437V85.0241C62.3474 81.7508 65.0132 79.085 68.2863 79.0812H68.2985C69.9756 79.0782 71.5515 78.422 72.7356 77.2335C73.9195 76.0452 74.5699 74.4668 74.5667 72.7894L74.5594 66.2278L74.2219 66.2285L74.2292 72.7901C74.2291 76.0778 71.5631 78.7437 68.2866 78.7437C68.2864 78.7437 68.2866 78.7437 68.2864 78.7437C64.8275 78.7477 62.0101 81.5651 62.0061 85.0243V93.7062H62.0062Z" fill="#4C005F"/>
<path d="M80.9062 77.5625C77.1491 77.5581 74.1044 74.5134 74.1 70.7562V66.0875C74.1 65.9011 74.2511 65.75 74.4375 65.75C74.6239 65.75 74.775 65.9011 74.775 66.0875V70.7562C74.775 74.1425 77.52 76.8875 80.9062 76.8875C84.2925 76.8875 87.0375 74.1425 87.0375 70.7562V58.2125C87.0375 58.0261 87.1886 57.875 87.375 57.875C87.5614 57.875 87.7125 58.0261 87.7125 58.2125V70.7562C87.7081 74.5134 84.6634 77.5581 80.9062 77.5625Z" fill="#EEF2F4"/>
<path d="M80.9065 77.7313C80.9064 77.7313 80.9061 77.7313 80.906 77.7313C77.0646 77.7268 73.9357 74.5978 73.9312 70.7565V66.0875C73.9312 65.8084 74.1584 65.5813 74.4375 65.5813C74.7166 65.5813 74.9437 65.8084 74.9437 66.0875V70.7563C74.9437 74.0441 77.6184 76.7188 80.9062 76.7188C84.1941 76.7188 86.8687 74.0441 86.8687 70.7563V58.2125C86.8687 57.9334 87.0959 57.7063 87.375 57.7063C87.6541 57.7063 87.8812 57.9334 87.8812 58.2125V70.7563C87.8767 74.5978 84.7478 77.7268 80.9065 77.7313ZM74.4375 65.9188C74.3445 65.9188 74.2687 65.9945 74.2687 66.0875V70.7563C74.273 74.4119 77.2507 77.3895 80.9065 77.3938C84.5618 77.3895 87.5395 74.4119 87.5437 70.7561V58.2125C87.5437 58.1195 87.468 58.0438 87.375 58.0438C87.282 58.0438 87.2062 58.1195 87.2062 58.2125V70.7563C87.2062 74.2302 84.3801 77.0563 80.9062 77.0563C77.4324 77.0563 74.6062 74.2302 74.6062 70.7563V66.0875C74.6062 65.9945 74.5305 65.9188 74.4375 65.9188Z" fill="#4C005F"/>
<g opacity="0.23">
<path opacity="0.23" d="M74.4053 62.183C74.2189 62.183 74.0678 62.0319 74.0678 61.8455V28.6205C74.0808 25.9075 71.8919 23.6975 69.1788 23.6846C66.4658 23.6717 64.2558 25.8606 64.2429 28.5736C64.2428 28.5893 64.2428 28.6049 64.2429 28.6204V40.3616C64.2394 43.4026 61.7751 45.8669 58.7341 45.8704H58.5766C55.5342 45.8705 53.068 43.4043 53.0679 40.362C53.0679 40.3618 53.0679 40.3617 53.0679 40.3616V22.0955C53.0663 19.3824 50.8656 17.1844 48.1524 17.1859C45.4416 17.1875 43.2444 19.3847 43.2428 22.0955V45.533C43.2428 45.7194 43.0917 45.8705 42.9053 45.8705C42.7189 45.8705 42.5678 45.7194 42.5678 45.533V22.0955C42.5694 19.0097 45.0724 16.5094 48.1583 16.5109C51.2419 16.5125 53.7413 19.0119 53.7429 22.0955V40.3617C53.7428 43.0312 55.9069 45.1954 58.5765 45.1955H58.5766H58.7341C61.4025 45.1925 63.5648 43.0301 63.5679 40.3617V28.6205C63.5541 25.5347 66.0446 23.0219 69.1304 23.0081C72.2163 22.9944 74.7291 25.4848 74.7428 28.5707C74.7429 28.5874 74.7429 28.604 74.7428 28.6207V61.8456C74.7428 62.0319 74.5917 62.183 74.4053 62.183Z" fill="#252A34"/>
</g>
<path d="M74.4422 60.9823C74.2558 60.9823 74.1047 60.8313 74.1047 60.6448V27.4199C74.1177 24.7069 71.9287 22.4969 69.2157 22.484C66.5026 22.471 64.2927 24.6599 64.2797 27.373C64.2796 27.3886 64.2796 27.4043 64.2797 27.4198V39.161C64.2764 42.2019 61.8119 44.6664 58.771 44.6697H58.6135C55.571 44.6697 53.1047 42.2034 53.1047 39.161V20.8949C53.1047 18.1817 50.9053 15.9824 48.1921 15.9824C45.479 15.9824 43.2796 18.1817 43.2796 20.8949V44.3324C43.2796 44.5188 43.1285 44.6699 42.9421 44.6699C42.7557 44.6699 42.6046 44.5188 42.6046 44.3324V20.8949C42.603 17.809 45.1033 15.306 48.1892 15.3044C51.2751 15.3029 53.7781 17.8032 53.7797 20.8891C53.7797 20.891 53.7797 20.893 53.7797 20.8949V39.1611C53.7794 41.8305 55.9434 43.9946 58.6128 43.9949C58.613 43.9949 58.6132 43.9949 58.6135 43.9949H58.771C61.4393 43.9919 63.6018 41.8295 63.6047 39.1611V27.4199C63.591 24.334 66.0814 21.8212 69.1673 21.8075C72.2532 21.7938 74.766 24.2842 74.7797 27.3701C74.7798 27.3867 74.7798 27.4034 74.7797 27.42V60.645C74.7797 60.8313 74.6286 60.9823 74.4422 60.9823Z" fill="#EEF2F4"/>
<path d="M74.4422 61.1512C74.1631 61.1512 73.936 60.924 73.936 60.6449V27.4199C73.942 26.1521 73.4544 24.9584 72.5626 24.0582C71.6709 23.158 70.482 22.6589 69.2149 22.6529C69.2073 22.6529 69.1995 22.6529 69.1918 22.6529C66.5867 22.6529 64.4609 24.7659 64.4485 27.374V39.1612C64.445 42.2884 61.8981 44.8353 58.7712 44.8388H58.6135C55.4828 44.8388 52.9359 42.2918 52.9359 39.1612V20.8949C52.9359 18.2792 50.8079 16.1511 48.1921 16.1511C45.5764 16.1511 43.4484 18.2792 43.4484 20.8949V44.3324C43.4484 44.6115 43.2212 44.8386 42.9421 44.8386C42.663 44.8386 42.4359 44.6115 42.4359 44.3324V20.8949C42.4342 17.721 45.015 15.1374 48.1891 15.1357C48.1901 15.1357 48.1912 15.1357 48.1921 15.1357C51.3649 15.1357 53.9467 17.716 53.9484 20.889V39.1611C53.9483 40.4072 54.4335 41.5785 55.3144 42.4596C56.1954 43.3407 57.3669 43.826 58.6128 43.8261H58.771C61.3404 43.8233 63.4331 41.7305 63.436 39.1609V27.4199C63.429 25.8832 64.0213 24.435 65.1037 23.3428C66.1861 22.2508 67.6289 21.6456 69.1664 21.6388C69.1752 21.6388 69.1841 21.6388 69.1929 21.6388C70.7206 21.6388 72.1584 22.2304 73.2443 23.3066C74.3364 24.389 74.9416 25.8318 74.9484 27.3693V60.645C74.9485 60.9241 74.7213 61.1512 74.4422 61.1512ZM69.1918 22.3152C69.2002 22.3152 69.2082 22.3152 69.2165 22.3152C70.5737 22.3218 71.8473 22.8564 72.8024 23.8206C73.7575 24.7848 74.28 26.0634 74.2735 27.4206V60.6448C74.2735 60.7378 74.3492 60.8135 74.4422 60.8135C74.5353 60.8135 74.611 60.7378 74.611 60.6448V27.3711C74.6044 25.9233 74.0349 24.5651 73.0067 23.5462C71.9845 22.5332 70.6311 21.9762 69.1929 21.9762C69.1846 21.9762 69.1763 21.9762 69.168 21.9762C67.7206 21.9826 66.3624 22.5524 65.3434 23.5803C64.3245 24.6083 63.767 25.9716 63.7735 27.419V39.161C63.7705 41.9165 61.5263 44.1605 58.7712 44.1635H58.6135C57.2766 44.1634 56.0206 43.643 55.0758 42.6982C54.131 41.7533 53.6108 40.4972 53.6109 39.161V20.8949C53.6094 17.9023 51.1786 15.4732 48.1921 15.4732C48.1911 15.4732 48.1903 15.4732 48.1893 15.4732C45.2013 15.4748 42.7718 17.9069 42.7734 20.8948V44.3324C42.7734 44.4254 42.8491 44.5012 42.9421 44.5012C43.0351 44.5012 43.1109 44.4254 43.1109 44.3324V20.8949C43.1109 18.0931 45.3903 15.8136 48.1921 15.8136C50.994 15.8136 53.2734 18.0931 53.2734 20.8949V39.1611C53.2734 42.1056 55.6689 44.5012 58.6135 44.5012H58.771C61.7122 44.4979 64.1077 42.1022 64.111 39.1609V27.3719C64.1244 24.5789 66.4014 22.3152 69.1918 22.3152Z" fill="#4C005F"/>
<path opacity="0.23" d="M45.0469 43.9625H42.3023V47.5999H45.0469V43.9625Z" fill="#252A34"/>
<path d="M44.3249 43.5125H41.5804V47.1499H44.3249V43.5125Z" fill="#FDE1FF"/>
<path d="M44.3249 43.5125H41.5804V44.975H44.3249V43.5125Z" fill="white"/>
<path d="M44.3249 45.1437H41.5804C41.4871 45.1437 41.4117 45.0682 41.4117 44.975V43.5125C41.4117 43.4192 41.4871 43.3437 41.5804 43.3437H44.3249C44.4182 43.3437 44.4937 43.4192 44.4937 43.5125V44.975C44.4937 45.0682 44.4182 45.1437 44.3249 45.1437ZM41.7492 44.8062H44.1562V43.6812H41.7492V44.8062Z" fill="#4C005F"/>
<path d="M44.3249 47.4874H41.5804C41.394 47.4874 41.2429 47.3363 41.2429 47.1499V43.5125C41.2429 43.326 41.394 43.175 41.5804 43.175H44.3249C44.5114 43.175 44.6624 43.326 44.6624 43.5125V47.1499C44.6624 47.3363 44.5114 47.4874 44.3249 47.4874ZM41.9179 46.8124H43.9874V43.85H41.9179V46.8124Z" fill="#4C005F"/>
<path opacity="0.23" d="M27.5164 49.4302H47.4017C48.65 49.4302 49.662 50.4422 49.662 51.6906V83.8035C49.662 85.0517 48.6501 86.0636 47.4019 86.0636H27.5164C26.2681 86.0636 25.2561 85.0517 25.2561 83.8033V51.6905C25.2562 50.4422 26.2681 49.4302 27.5164 49.4302Z" fill="#252A34"/>
<path d="M26.8787 47.1056H46.7639C48.012 47.106 49.0236 48.1178 49.0237 49.3659V81.4788C49.0237 82.727 48.0118 83.739 46.7636 83.739H26.8787C25.6304 83.739 24.6183 82.727 24.6183 81.4786V49.3659C24.6184 48.1176 25.6304 47.1056 26.8787 47.1056Z" fill="#EEF2F4"/>
<path d="M26.8787 47.1056H46.7639C48.012 47.106 49.0236 48.1178 49.0237 49.3659V81.4788C49.0237 82.727 48.0118 83.739 46.7636 83.739H26.8787C25.6304 83.739 24.6183 82.727 24.6183 81.4786V49.3659C24.6184 48.1176 25.6304 47.1056 26.8787 47.1056Z" fill="#EEF2F4"/>
<g opacity="0.76">
<path opacity="0.76" d="M25.7062 81.4788V49.3657C25.7061 48.1176 26.7179 47.1057 27.9661 47.1056C27.9662 47.1056 27.9662 47.1056 27.9663 47.1056H26.8786C25.6304 47.1055 24.6186 48.1173 24.6184 49.3655C24.6184 49.3656 24.6184 49.3656 24.6184 49.3657V81.4788C24.6186 82.727 25.6305 83.7388 26.8787 83.7388H27.9664C26.7183 83.7388 25.7063 82.727 25.7062 81.4788Z" fill="white"/>
</g>
<g opacity="0.1">
<path opacity="0.1" d="M47.9365 81.4788V49.3657C47.9365 48.1176 46.9246 47.1056 45.6764 47.1056H46.7642C48.0124 47.1056 49.0243 48.1176 49.0243 49.3657V81.4788C49.0241 82.727 48.0121 83.7388 46.7639 83.7388H45.6762C46.9245 83.7389 47.9364 82.7271 47.9365 81.4788Z" fill="#252A34"/>
</g>
<g opacity="0.04">
<path opacity="0.04" d="M46.764 82.2763H26.8787C25.6304 82.2763 24.6184 81.2644 24.6184 80.0161V81.4786C24.6184 82.7269 25.6304 83.7388 26.8787 83.7388H46.764C48.0123 83.7388 49.0242 82.7269 49.0243 81.4786V80.0161C49.0242 81.2644 48.0123 82.2763 46.764 82.2763Z" fill="#252A34"/>
</g>
<g opacity="0.38">
<path opacity="0.38" d="M46.764 48.5681H26.8787C25.6304 48.5681 24.6184 49.5801 24.6184 50.8284V49.3659C24.6184 48.1176 25.6304 47.1056 26.8787 47.1056H46.764C48.0123 47.1056 49.0242 48.1176 49.0243 49.3659V50.8284C49.0242 49.5801 48.0123 48.5681 46.764 48.5681Z" fill="white"/>
</g>
<path d="M46.7636 84.0765H26.8787C25.4462 84.0765 24.2808 82.9111 24.2808 81.4787V49.3659C24.2808 47.9335 25.4462 46.7681 26.8787 46.7681H46.7639C48.1961 46.7685 49.3611 47.9339 49.3612 49.3659V81.479C49.3612 82.9112 48.196 84.0765 46.7636 84.0765ZM26.8787 47.4431C25.8185 47.4431 24.9559 48.3057 24.9558 49.3659V81.4788C24.9558 82.5391 25.8184 83.4016 26.8787 83.4016H46.7636C47.8238 83.4016 48.6862 82.5392 48.6862 81.479V49.3659C48.6862 48.306 47.8238 47.4435 46.7638 47.4431H26.8787Z" fill="#4C005F"/>
<path d="M29.9309 51.4913H43.7117C44.4795 51.4913 45.1019 52.1137 45.1019 52.8815V61.9548C45.1019 62.7226 44.4795 63.345 43.7117 63.345H29.9309C29.1631 63.345 28.5408 62.7226 28.5408 61.9548V52.8815C28.5408 52.1137 29.1631 51.4913 29.9309 51.4913Z" fill="#B296A3"/>
<path opacity="0.2" d="M28.5375 56.8812L33.9374 51.4625H33.2624L28.5375 56.2062V56.8812Z" fill="#EEF2F4"/>
<path opacity="0.2" d="M28.5375 58.8138L35.87 51.4625H34.7173L28.5375 57.6612V58.8138Z" fill="#EEF2F4"/>
<path d="M43.7117 63.5138H29.9309C29.0713 63.5138 28.372 62.8144 28.372 61.9549V52.8815C28.372 52.0219 29.0713 51.3226 29.9309 51.3226H43.7117C44.5713 51.3226 45.2706 52.0219 45.2706 52.8815V61.9549C45.2706 62.8144 44.5713 63.5138 43.7117 63.5138ZM29.9309 51.6601C29.2574 51.6601 28.7095 52.2081 28.7095 52.8815V61.9549C28.7095 62.6283 29.2575 63.1763 29.9309 63.1763H43.7117C44.3853 63.1763 44.9331 62.6283 44.9331 61.9549V52.8815C44.9331 52.2081 44.3852 51.6601 43.7117 51.6601H29.9309Z" fill="#4C005F"/>
<path d="M63.6616 96.1446C63.6646 97.1924 64.5134 98.0411 65.5612 98.044H65.8147V102.724H63.8797C62.1564 102.724 60.7594 101.327 60.7594 99.6037V93.3636C60.7595 93.105 60.969 92.8956 61.2275 92.8956H63.1932C63.4518 92.8956 63.6612 93.105 63.6613 93.3636L63.6616 96.1446Z" fill="#EEF2F4"/>
<path opacity="0.1" d="M65.5612 98.0236C64.5 98.0207 63.6404 97.161 63.6375 96.0998V93.2926C63.6368 93.0477 63.4383 92.8492 63.1934 92.8486H62.85V96.857C62.8502 97.5745 63.2293 98.2387 63.847 98.6039C64.5434 99.0011 64.9775 99.7375 64.9875 100.539V102.749H65.775V98.0236H65.5612Z" fill="#252A34"/>
<path d="M65.8147 103.062H63.8798C61.9731 103.062 60.422 101.51 60.422 99.6038V93.3636C60.4222 92.9195 60.7836 92.5581 61.2276 92.5581H63.1933C63.6374 92.5581 63.9987 92.9195 63.9989 93.3635L63.9992 96.144C64.0019 97.0032 64.7031 97.7041 65.5623 97.7066H65.8148C66.0012 97.7066 66.1523 97.8576 66.1523 98.0441V102.724C66.1522 102.91 66.0011 103.062 65.8147 103.062ZM61.2275 93.2331C61.1555 93.2331 61.0969 93.2917 61.0969 93.3637V99.6038C61.0969 101.138 62.3453 102.387 63.8797 102.387H65.4771V98.3798C64.2854 98.3319 63.3275 97.3468 63.3239 96.1456C63.3239 96.1453 63.3239 96.1449 63.3239 96.1446L63.3237 93.3636C63.3237 93.2917 63.2651 93.2331 63.1931 93.2331H61.2275Z" fill="#4C005F"/>
<path d="M67.3122 98.7462H65.8145V101.835H67.3122V98.7462Z" fill="#D6DADC"/>
<path d="M67.3122 102.173H65.8145C65.6281 102.173 65.477 102.022 65.477 101.835V98.7462C65.477 98.5597 65.6281 98.4087 65.8145 98.4087H67.3122C67.4986 98.4087 67.6497 98.5597 67.6497 98.7462V101.835C67.6497 102.022 67.4986 102.173 67.3122 102.173ZM66.152 101.498H66.9747V99.0837H66.152V101.498Z" fill="#4C005F"/>
<path d="M68.6703 103.741H67.9823C67.4268 103.741 66.9748 103.289 66.9748 102.733V97.8483C66.9747 97.5792 67.0795 97.3261 67.2698 97.1358C67.46 96.9455 67.713 96.8406 67.9822 96.8406H68.6703C70.3271 96.8406 71.6749 98.1885 71.6749 99.8453V100.736C71.6749 102.393 70.3271 103.741 68.6703 103.741ZM67.9823 97.5156C67.8935 97.5156 67.81 97.5503 67.7471 97.6131C67.6842 97.6758 67.6498 97.7594 67.6498 97.8482V102.733C67.6498 102.916 67.799 103.066 67.9823 103.066H68.6703C69.9548 103.066 70.9999 102.02 70.9999 100.736V99.8453C70.9999 98.5608 69.9548 97.5156 68.6703 97.5156H67.9823Z" fill="#4C005F"/>
<path d="M67.9823 97.1781H68.6703C70.1434 97.1781 71.3374 98.3722 71.3374 99.8453V100.736C71.3374 102.209 70.1434 103.403 68.6703 103.403H67.9823C67.6123 103.403 67.3123 103.103 67.3123 102.733V97.8483C67.3122 97.4783 67.6122 97.1782 67.9823 97.1781C67.9822 97.1781 67.9823 97.1781 67.9823 97.1781Z" fill="#4C005F"/>
<path d="M63.6616 96.1446C63.6646 97.1924 64.5134 98.0411 65.5612 98.044H65.8147V102.724H63.8797C62.1564 102.724 60.7594 101.327 60.7594 99.6037V93.3636C60.7595 93.105 60.969 92.8956 61.2275 92.8956H63.1932C63.4518 92.8956 63.6612 93.105 63.6613 93.3636L63.6616 96.1446Z" fill="#EEF2F4"/>
<path opacity="0.1" d="M65.5612 98.0236C64.5 98.0207 63.6404 97.161 63.6375 96.0998V93.2926C63.6368 93.0477 63.4383 92.8492 63.1934 92.8486H62.85V96.857C62.8502 97.5745 63.2293 98.2387 63.847 98.6039C64.5434 99.0011 64.9775 99.7375 64.9875 100.539V102.749H65.775V98.0236H65.5612Z" fill="#252A34"/>
<path d="M65.8147 103.062H63.8798C61.9731 103.062 60.422 101.51 60.422 99.6038V93.3636C60.4222 92.9195 60.7836 92.5581 61.2276 92.5581H63.1933C63.6374 92.5581 63.9987 92.9195 63.9989 93.3635L63.9992 96.144C64.0019 97.0032 64.7031 97.7041 65.5623 97.7066H65.8148C66.0012 97.7066 66.1523 97.8576 66.1523 98.0441V102.724C66.1522 102.91 66.0011 103.062 65.8147 103.062ZM61.2275 93.2331C61.1555 93.2331 61.0969 93.2917 61.0969 93.3637V99.6038C61.0969 101.138 62.3453 102.387 63.8797 102.387H65.4771V98.3798C64.2854 98.3319 63.3275 97.3468 63.3239 96.1456C63.3239 96.1453 63.3239 96.1449 63.3239 96.1446L63.3237 93.3636C63.3237 93.2917 63.2651 93.2331 63.1931 93.2331H61.2275Z" fill="#4C005F"/>
<path d="M67.3122 98.7462H65.8145V101.835H67.3122V98.7462Z" fill="#D6DADC"/>
<path d="M67.3122 102.173H65.8145C65.6281 102.173 65.477 102.022 65.477 101.835V98.7462C65.477 98.5597 65.6281 98.4087 65.8145 98.4087H67.3122C67.4986 98.4087 67.6497 98.5597 67.6497 98.7462V101.835C67.6497 102.022 67.4986 102.173 67.3122 102.173ZM66.152 101.498H66.9747V99.0837H66.152V101.498Z" fill="#4C005F"/>
<path d="M68.6703 103.741H67.9823C67.4268 103.741 66.9748 103.289 66.9748 102.733V97.8483C66.9747 97.5792 67.0795 97.3261 67.2698 97.1358C67.46 96.9455 67.713 96.8406 67.9822 96.8406H68.6703C70.3271 96.8406 71.6749 98.1885 71.6749 99.8453V100.736C71.6749 102.393 70.3271 103.741 68.6703 103.741ZM67.9823 97.5156C67.8935 97.5156 67.81 97.5503 67.7471 97.6131C67.6842 97.6758 67.6498 97.7594 67.6498 97.8482V102.733C67.6498 102.916 67.799 103.066 67.9823 103.066H68.6703C69.9548 103.066 70.9999 102.02 70.9999 100.736V99.8453C70.9999 98.5608 69.9548 97.5156 68.6703 97.5156H67.9823Z" fill="#4C005F"/>
<path d="M67.9823 97.1781H68.6703C70.1434 97.1781 71.3374 98.3722 71.3374 99.8453V100.736C71.3374 102.209 70.1434 103.403 68.6703 103.403H67.9823C67.6123 103.403 67.3123 103.103 67.3123 102.733V97.8483C67.3122 97.4783 67.6122 97.1782 67.9823 97.1781C67.9822 97.1781 67.9823 97.1781 67.9823 97.1781Z" fill="#4C005F"/>
<path d="M88.7491 54.9577C88.7521 53.9099 89.6009 53.0612 90.6488 53.0582H90.9022V48.3782H88.9672C87.2439 48.3782 85.8469 49.7753 85.8469 51.4985V57.7391C85.8469 57.9977 86.0565 58.2072 86.3149 58.2072H86.315H88.2807C88.5391 58.2073 88.7487 57.9978 88.7488 57.7393V57.7391L88.7491 54.9577Z" fill="#EEF2F4"/>
<g opacity="0.1">
<path opacity="0.1" d="M88.05 55.3646V57.9876H88.2809C88.5311 57.9828 88.7302 57.7761 88.7254 57.5259C88.7253 57.5218 88.7252 57.5178 88.7251 57.5137V54.7327C88.7232 54.373 88.8248 54.0203 89.0176 53.7167C88.4234 54.0533 88.0544 54.6817 88.05 55.3646Z" fill="#252A34"/>
<path opacity="0.1" d="M88.9674 48.4251C88.0101 48.4116 87.1007 48.8433 86.5062 49.5939C87.0288 49.2106 87.6574 48.9988 88.3054 48.9875C89.3449 48.9875 90.1875 49.8302 90.1875 50.8697V53.104C90.3399 53.0733 90.4938 53.0512 90.6487 53.0375H90.8625V48.4251H88.9674Z" fill="#252A34"/>
</g>
<path d="M88.2807 58.5446H86.315C85.8709 58.5446 85.5094 58.1833 85.5094 57.7391V51.4985C85.5094 49.5919 87.0606 48.0407 88.9672 48.0407H90.9021C91.0885 48.0407 91.2396 48.1918 91.2396 48.3782V53.0582C91.2396 53.2446 91.0885 53.3957 90.9021 53.3957H90.6487C89.7905 53.3981 89.0894 54.099 89.0866 54.9581L89.0863 57.7391C89.0861 58.1833 88.7248 58.5446 88.2807 58.5446ZM88.9672 48.7157C87.4327 48.7157 86.1844 49.9641 86.1844 51.4985V57.7391C86.1844 57.8111 86.243 57.8696 86.3149 57.8696H88.2807C88.3527 57.8696 88.4113 57.811 88.4113 57.7391L88.4116 54.9577C88.4116 54.9573 88.4116 54.957 88.4116 54.9567C88.4151 53.755 89.3736 52.7698 90.5647 52.7225V48.7157H88.9672Z" fill="#4C005F"/>
<path d="M92.3997 49.2671H90.9019V52.3561H92.3997V49.2671Z" fill="#D6DADC"/>
<path d="M92.3997 52.6936H90.902C90.7155 52.6936 90.5645 52.5425 90.5645 52.3561V49.2671C90.5645 49.0807 90.7155 48.9296 90.902 48.9296H92.3997C92.5861 48.9296 92.7372 49.0807 92.7372 49.2671V52.3561C92.7372 52.5425 92.5861 52.6936 92.3997 52.6936ZM91.2395 52.0186H92.0622V49.6046H91.2395V52.0186Z" fill="#4C005F"/>
<path d="M93.7578 54.2616H93.0699C92.5143 54.2616 92.0623 53.8096 92.0623 53.2541V48.3688C92.0627 47.8134 92.5147 47.3617 93.0699 47.3617H93.7578C95.4146 47.3617 96.7625 48.7095 96.7625 50.3663V51.257C96.7625 52.9138 95.4146 54.2616 93.7578 54.2616ZM93.0699 48.0367C92.8866 48.0367 92.7374 48.1857 92.7373 48.369V53.2541C92.7373 53.4375 92.8865 53.5866 93.0699 53.5866H93.7578C95.0423 53.5866 96.0875 52.5415 96.0875 51.257V50.3663C96.0875 49.0818 95.0423 48.0367 93.7578 48.0367H93.0699Z" fill="#4C005F"/>
<path d="M93.0698 47.6992H93.7578C95.2308 47.6992 96.4249 48.8932 96.4249 50.3663V51.257C96.4249 52.73 95.2308 53.9241 93.7578 53.9241H93.0698C92.6998 53.9241 92.3998 53.6241 92.3998 53.2541V48.3688C92.4 47.9989 92.6999 47.6992 93.0698 47.6992Z" fill="#4C005F"/>
<path d="M36.8444 78.8844C40.2616 78.8844 43.0319 76.1141 43.0319 72.6969C43.0319 69.2796 40.2616 66.5094 36.8444 66.5094C33.4271 66.5094 30.6569 69.2796 30.6569 72.6969C30.6569 76.1141 33.4271 78.8844 36.8444 78.8844Z" fill="#D7F0F4"/>
<path opacity="0.63" d="M36.8444 67.6344C40.0433 67.6348 42.7145 70.0737 43.0053 73.2594C43.022 73.074 43.0319 72.8867 43.0319 72.6969C43.0319 69.2796 40.2617 66.5094 36.8444 66.5094C33.4271 66.5094 30.6569 69.2796 30.6569 72.6969C30.6569 72.8867 30.6668 73.074 30.6835 73.2594C30.9743 70.0737 33.6454 67.6349 36.8444 67.6344Z" fill="#EEF2F4"/>
<path d="M36.8444 74.6094C37.9006 74.6094 38.7569 73.7531 38.7569 72.6969C38.7569 71.6406 37.9006 70.7844 36.8444 70.7844C35.7881 70.7844 34.9319 71.6406 34.9319 72.6969C34.9319 73.7531 35.7881 74.6094 36.8444 74.6094Z" fill="#EEF2F4"/>
<path d="M36.8444 79.0531C33.3396 79.0531 30.4881 76.2017 30.4881 72.6969C30.4881 69.1921 33.3396 66.3406 36.8444 66.3406C40.3492 66.3406 43.2006 69.1921 43.2006 72.6969C43.2006 76.2017 40.3492 79.0531 36.8444 79.0531ZM36.8444 66.6781C33.5256 66.6781 30.8256 69.3781 30.8256 72.6969C30.8256 76.0156 33.5256 78.7156 36.8444 78.7156C40.1631 78.7156 42.8631 76.0156 42.8631 72.6969C42.8631 69.3781 40.1631 66.6781 36.8444 66.6781Z" fill="#4C005F"/>
<path d="M36.8444 70.7844C35.7891 70.7836 34.933 71.6384 34.9322 72.6936C34.9318 73.2217 35.15 73.7264 35.535 74.0879C35.535 74.0742 35.5329 74.0607 35.5329 74.0468C35.5335 73.3224 36.1213 72.7356 36.846 72.7362C37.5696 72.7369 38.156 73.3233 38.1566 74.0468C38.1566 74.0607 38.1549 74.0742 38.1546 74.0879C38.9237 73.3654 38.9616 72.1562 38.239 71.3869C37.8775 71.0021 37.3728 70.7839 36.8447 70.7844H36.8444Z" fill="#DBDCDD"/>
<path d="M36.8444 74.7781C35.6968 74.7781 34.7631 73.8445 34.7631 72.6969C34.7631 71.5493 35.6968 70.6156 36.8444 70.6156C37.992 70.6156 38.9256 71.5493 38.9256 72.6969C38.9256 73.8445 37.992 74.7781 36.8444 74.7781ZM36.8444 70.9531C35.8828 70.9531 35.1006 71.7353 35.1006 72.6969C35.1006 73.6584 35.8828 74.4406 36.8444 74.4406C37.8059 74.4406 38.5881 73.6584 38.5881 72.6969C38.5881 71.7353 37.8059 70.9531 36.8444 70.9531Z" fill="#4C005F"/>
<path d="M35.926 69.1645V68.7125L35.7538 69.1645H35.676L35.5027 68.7125V69.1645H35.3264V68.4809H35.5714L35.7149 68.8581L35.8573 68.4809H36.1022V69.1645H35.926Z" fill="#4C005F"/>
<path d="M36.2248 69.1645V68.4809H36.726V68.6347H36.4012V68.7412H36.7189V68.895H36.4012V69.0107H36.7261V69.1645H36.2248Z" fill="#4C005F"/>
<path d="M37.2935 69.1645L37.0045 68.7689V69.1645H36.8287V68.4809H37.0101L37.2868 68.8571V68.4809H37.4641V69.1645H37.2935Z" fill="#4C005F"/>
<path d="M37.5862 68.8878V68.4808H37.7662V68.8816C37.7693 68.9611 37.8364 69.023 37.9159 69.0198C37.9911 69.0169 38.0513 68.9566 38.0542 68.8816V68.4808H38.2325V68.8868C38.2325 69.057 38.1299 69.1768 37.9106 69.1768C37.6914 69.1768 37.5862 69.0558 37.5862 68.8878Z" fill="#4C005F"/>
<path d="M40.4625 72.2574L41.1444 72.6512L40.4625 73.0449V72.2574Z" fill="#4C005F"/>
<path d="M39.7875 72.2574L40.4694 72.6512L39.7875 73.0449V72.2574Z" fill="#4C005F"/>
<path d="M41.3055 72.3126H41.1649V73.0678H41.3055V72.3126Z" fill="#4C005F"/>
<path d="M36.3 76.3075L36.982 76.7012L36.3 77.095V76.3075Z" fill="#4C005F"/>
<path d="M37.1166 76.3431H36.976V77.0984H37.1166V76.3431Z" fill="#4C005F"/>
<path d="M37.3687 76.3431H37.2281V77.0984H37.3687V76.3431Z" fill="#4C005F"/>
<path d="M33.15 72.2574L32.468 72.6512L33.15 73.0449V72.2574Z" fill="#4C005F"/>
<path d="M33.825 72.2574L33.143 72.6512L33.825 73.0449V72.2574Z" fill="#4C005F"/>
<path d="M32.5032 72.3126H32.3626V73.0678H32.5032V72.3126Z" fill="#4C005F"/>
<path d="M75.225 60.35H73.5938V66.0312H75.225V60.35Z" fill="#EEF2F4"/>
<path d="M75.225 66.2H73.5937C73.5006 66.2 73.425 66.1244 73.425 66.0313V60.35C73.425 60.2569 73.5006 60.1813 73.5937 60.1813H75.225C75.3181 60.1813 75.3937 60.2569 75.3937 60.35V66.0313C75.3937 66.1244 75.3181 66.2 75.225 66.2ZM73.7625 65.8625H75.0562V60.5188H73.7625V65.8625Z" fill="#4C005F"/>
</svg>
