<svg width="62" height="59" viewBox="0 0 62 59" fill="none" xmlns="http://www.w3.org/2000/svg">
<path d="M12 35.3378L36.527 1H39.7973L18.5405 35.3378H12Z" fill="#252A34" stroke="#252A34"/>
<path d="M46.0863 35.3378L38.1622 1H40.8035L49.6081 35.3378H46.0863Z" fill="#252A34" stroke="#252A34"/>
<path fill-rule="evenodd" clip-rule="evenodd" d="M42.0241 23.8741L49.6322 25.7274C51.4887 26.1796 53.4063 25.2586 54.2138 23.5268C55.2828 21.2343 53.9872 18.5369 51.5296 17.9382L46.035 16.5998C44.1418 16.1386 42.1862 17.0779 41.3627 18.8439L36.7122 28.817C36.1816 28.0579 35.4502 27.4239 34.5505 27.0044C31.8223 25.7322 28.5794 26.9125 27.3072 29.6407C26.0351 32.3689 27.2154 35.6118 29.9436 36.884C32.6717 38.1561 35.9146 36.9758 37.1868 34.2476L42.0241 23.8741ZM50.8846 20.586L45.3901 19.2476C44.759 19.0939 44.1071 19.4069 43.8326 19.9956L43.1986 21.3553L50.2772 23.0796C50.8715 23.2243 51.4854 22.9295 51.7439 22.3751C52.0861 21.6412 51.6714 20.7777 50.8846 20.586ZM34.7169 33.0959C35.353 31.7318 34.7628 30.1104 33.3988 29.4743C32.0347 28.8382 30.4132 29.4284 29.7771 30.7924C29.141 32.1565 29.7312 33.778 31.0953 34.4141C32.4594 35.0501 34.0808 34.46 34.7169 33.0959Z" fill="#252A34"/>
<path d="M1.62344 53.2461C1.50625 53.2461 1.32461 53.2285 1.07852 53.1934C0.891016 52.9941 0.721094 52.7246 0.56875 52.3848C0.428125 52.0332 0.316797 51.6641 0.234766 51.2773C0.164454 50.8789 0.129297 50.4863 0.129297 50.0996C0.141016 49.7012 0.211329 49.3496 0.340235 49.0449C0.340235 49.0332 0.392969 48.8926 0.498438 48.623C0.615625 48.3535 0.76211 48.0137 0.937891 47.6035C1.11367 47.1816 1.31289 46.7188 1.53555 46.2148C1.7582 45.6992 1.98086 45.1953 2.20352 44.7031C2.42617 44.2109 2.63711 43.7656 2.83633 43.3672C3.04727 42.957 3.22891 42.6406 3.38125 42.418C3.48672 42.2539 3.58047 42.0957 3.6625 41.9434C3.75625 41.791 3.84414 41.6504 3.92617 41.5215C4.05508 41.3105 4.17227 41.1172 4.27773 40.9414C4.39492 40.7539 4.51797 40.5898 4.64688 40.4492C4.7875 40.2969 4.93984 40.168 5.10391 40.0625C5.26797 39.9453 5.46719 39.8457 5.70156 39.7637C5.84219 39.8223 5.96523 39.8867 6.0707 39.957C6.17617 40.0156 6.26992 40.0918 6.35195 40.1855L6.40469 40.4316C6.42813 40.5137 6.46328 40.5723 6.51016 40.6074C6.56875 40.6309 6.61563 40.6426 6.65078 40.6426C6.80313 40.6777 6.93203 40.7188 7.0375 40.7656C7.15469 40.8008 7.27773 40.8242 7.40664 40.8359C7.45352 40.9062 7.49453 40.9766 7.52969 41.0469C7.57656 41.1172 7.62344 41.1816 7.67031 41.2402C7.90469 41.5801 8.09805 41.9082 8.25039 42.2246C8.40273 42.541 8.40273 42.8867 8.25039 43.2617L8.26797 43.4551C8.32656 43.5371 8.35586 43.6133 8.35586 43.6836C8.35586 43.7539 8.34414 43.8535 8.3207 43.9824C8.30898 44.0762 8.29727 44.1816 8.28555 44.2988C8.28555 44.4043 8.30313 44.5215 8.33828 44.6504L8.46133 44.791C8.64883 44.8848 8.83047 44.9316 9.00625 44.9316C9.24063 44.9316 9.45156 44.8789 9.63906 44.7734C9.82656 44.668 10.0023 44.5625 10.1664 44.457C10.2953 44.3633 10.4125 44.2871 10.518 44.2285C10.6352 44.1699 10.7465 44.1289 10.852 44.1055C11.098 43.8711 11.3207 43.666 11.5199 43.4902C11.7309 43.3027 11.9477 43.1152 12.1703 42.9277C12.5922 42.5879 13.0023 42.2246 13.4008 41.8379C13.7992 41.4395 14.1156 40.9473 14.35 40.3613C14.4789 40.2793 14.6254 40.2383 14.7895 40.2383C14.9535 40.2383 15.1176 40.2734 15.2816 40.3438C15.4457 40.4023 15.6098 40.4727 15.7738 40.5547C15.809 40.5781 15.8383 40.5957 15.8617 40.6074C15.8969 40.6191 15.932 40.6367 15.9672 40.6602C15.9672 40.7891 16.0199 40.9062 16.1254 41.0117C16.184 41.0586 16.225 41.0879 16.2484 41.0996C16.2719 41.1113 16.2953 41.123 16.3188 41.1348C16.4125 41.1934 16.4887 41.2461 16.5473 41.293C16.6176 41.3398 16.6703 41.4043 16.7055 41.4863C16.8109 41.8027 16.9867 42.0488 17.2328 42.2246C17.2094 42.3535 17.2152 42.4824 17.2504 42.6113C17.2855 42.7285 17.3266 42.8457 17.3734 42.9629C17.3969 43.0098 17.4145 43.0566 17.4262 43.1035C17.4379 43.1387 17.4555 43.1855 17.4789 43.2441L17.0922 43.209L17.1449 43.5957C17.1801 43.7949 17.1625 44.0176 17.0922 44.2637C17.0336 44.5098 16.9633 44.7031 16.8813 44.8438C16.9047 45.1953 16.9164 45.4766 16.9164 45.6875C16.9164 45.8867 16.9047 46.0742 16.8813 46.25C16.8578 46.4258 16.8168 46.5957 16.7582 46.7598C16.7113 46.9121 16.6469 47.0762 16.5648 47.252C16.6117 48.1426 16.5063 48.957 16.2484 49.6953C16.0023 50.4336 15.7328 51.125 15.4398 51.7695C15.4047 51.8516 15.3695 51.9277 15.3344 51.998C15.2992 52.0684 15.2699 52.1387 15.2465 52.209C15.1176 52.2441 15.0004 52.2852 14.8949 52.332C14.7895 52.3789 14.6898 52.4316 14.5961 52.4902C14.4672 52.5723 14.3383 52.6426 14.2094 52.7012C14.0805 52.748 13.9457 52.7715 13.8051 52.7715C13.2426 52.3613 12.9496 51.6523 12.9262 50.6445C12.9145 49.6367 13.1313 48.3535 13.5766 46.7949C13.6586 46.7363 13.6938 46.6484 13.682 46.5312V46.3379L13.5063 46.3203C13.4477 46.3203 13.3949 46.3262 13.348 46.3379C13.3012 46.3496 13.266 46.4023 13.2426 46.4961C12.8676 46.7656 12.4574 47.0469 12.0121 47.3398C11.5785 47.6211 11.1273 47.8848 10.6586 48.1309C10.1898 48.3652 9.70938 48.5645 9.21719 48.7285C8.73672 48.8809 8.26797 48.957 7.81094 48.957C6.63906 48.957 5.7543 48.3594 5.15664 47.1641L4.99844 46.8477L4.82266 47.1289C4.7875 47.1875 4.72305 47.3047 4.6293 47.4805C4.54727 47.6445 4.45938 47.8379 4.36563 48.0605C4.28359 48.2832 4.20742 48.5117 4.13711 48.7461C4.07852 48.9805 4.06094 49.1855 4.08438 49.3613C3.94375 49.4902 3.80313 49.6367 3.6625 49.8008C3.53359 49.9648 3.43984 50.1523 3.38125 50.3633C3.35781 50.4219 3.35195 50.4805 3.36367 50.5391C3.37539 50.5859 3.39297 50.6387 3.41641 50.6973C3.40469 50.7793 3.38125 50.8379 3.34609 50.873C3.31094 50.9082 3.26992 50.9434 3.22305 50.9785C3.16445 51.0371 3.10586 51.1016 3.04727 51.1719C2.98867 51.2305 2.93594 51.3008 2.88906 51.3828C2.86563 51.4531 2.84805 51.5293 2.83633 51.6113C2.82461 51.6816 2.81289 51.7461 2.80117 51.8047C2.80117 51.9336 2.78359 52.0215 2.74844 52.0684C2.63125 52.3145 2.52578 52.5195 2.43203 52.6836C2.35 52.8359 2.26797 52.9531 2.18594 53.0352C2.10391 53.1172 2.01602 53.1699 1.92227 53.1934C1.84023 53.2285 1.74063 53.2461 1.62344 53.2461ZM31.5379 42.998C31.5613 43.2559 31.6023 43.4785 31.6609 43.666C31.7195 43.8535 31.784 44.0352 31.8543 44.2109C31.9129 44.375 31.9656 44.5391 32.0125 44.7031C32.0711 44.8555 32.1121 45.043 32.1355 45.2656C32.0418 45.5703 31.9715 45.8516 31.9246 46.1094C31.8895 46.3672 31.8484 46.6367 31.8016 46.918C31.6141 47.3281 31.4324 47.6914 31.2566 48.0078C31.0809 48.3242 30.9402 48.5996 30.8348 48.834C30.7762 48.8926 30.7234 48.9629 30.6766 49.0449C30.6414 49.1152 30.6004 49.1914 30.5535 49.2734C30.5301 49.3086 30.5008 49.3613 30.4656 49.4316C30.4305 49.502 30.4012 49.5488 30.3777 49.5723L30.0262 49.4492L29.9559 49.8887L29.7098 49.959L29.534 50.1699C29.3113 50.5566 29.077 50.8848 28.8309 51.1543C28.5848 51.4121 28.3035 51.6465 27.9871 51.8574C27.6824 52.0566 27.3309 52.2441 26.9324 52.4199C26.5457 52.5957 26.1063 52.7891 25.6141 53C25.4148 52.9766 25.2391 52.9648 25.0867 52.9648C24.9461 52.9531 24.8113 52.9414 24.6824 52.9297C24.4598 52.9297 24.1844 52.9121 23.8563 52.877C23.8211 52.7832 23.7684 52.7188 23.698 52.6836C23.6277 52.6484 23.5633 52.6309 23.5047 52.6309C23.3055 52.5371 23.1531 52.4023 23.0477 52.2266C22.9539 52.0391 22.8602 51.8398 22.7664 51.6289C22.7078 51.5 22.6492 51.3828 22.5906 51.2773C22.532 51.1602 22.4676 51.043 22.3973 50.9258L22.6961 50.8379L22.3094 50.416C22.2859 50.3809 22.2566 50.3516 22.2215 50.3281C22.1863 50.293 22.157 50.2578 22.1336 50.2227L22.116 49.9414C22.0809 49.1328 22.0633 48.3945 22.0633 47.7266C22.075 47.0469 22.1688 46.4434 22.3445 45.916V45.7227C22.3797 45.4648 22.4148 45.2539 22.45 45.0898C22.4852 44.9141 22.5145 44.75 22.5379 44.5977C22.573 44.3398 22.6258 44.0996 22.6961 43.877C22.8602 43.8418 22.9832 43.7773 23.0652 43.6836C23.1473 43.5781 23.2176 43.4844 23.2762 43.4023C23.4402 43.3906 23.5516 43.4141 23.6102 43.4727C23.6688 43.5312 23.7273 43.625 23.7859 43.7539C23.8445 43.8594 23.9148 43.9766 23.9969 44.1055C24.0906 44.2344 24.2254 44.334 24.4012 44.4043C24.4246 44.498 24.4539 44.5977 24.4891 44.7031C24.5359 44.7969 24.5828 44.9023 24.6297 45.0195C24.7234 45.2188 24.8055 45.4297 24.8758 45.6523C24.9578 45.8633 25.0047 46.0684 25.0164 46.2676C24.8992 46.4902 24.8055 46.748 24.7352 47.041C24.6766 47.334 24.6355 47.6328 24.6121 47.9375C24.6004 48.2305 24.6063 48.5176 24.6297 48.7988C24.6648 49.0684 24.7176 49.2969 24.7879 49.4844L24.8934 49.7129L25.1922 49.6777C25.5438 49.584 25.8602 49.4844 26.1414 49.3789C26.4344 49.2617 26.7039 49.127 26.95 48.9746C27.1961 48.8223 27.4305 48.6465 27.6531 48.4473C27.8758 48.2363 28.1102 47.9961 28.3563 47.7266C28.6023 47.457 28.8133 47.1523 28.9891 46.8125C29.1766 46.4609 29.3289 46.0977 29.4461 45.7227C29.575 45.3477 29.6688 44.9785 29.7273 44.6152C29.7977 44.2402 29.8445 43.8887 29.868 43.5605C30.0672 43.4902 30.1668 43.3496 30.1668 43.1387L30.1316 42.9453C30.0848 42.875 30.0848 42.793 30.1316 42.6992C30.202 42.4766 30.366 42.3066 30.6238 42.1895C30.8113 42.3066 30.9754 42.4355 31.116 42.5762C31.2684 42.7168 31.409 42.8574 31.5379 42.998ZM47.759 49.8359C47.4777 50.3398 47.1086 50.7324 46.6516 51.0137C46.1945 51.2832 45.6906 51.5117 45.1398 51.6992C44.5891 51.875 44.009 52.0332 43.3996 52.1738C42.802 52.3145 42.2219 52.4961 41.6594 52.7188C41.4953 52.7188 41.3488 52.7246 41.2199 52.7363C41.1027 52.748 40.9855 52.7656 40.8684 52.7891C40.7629 52.8008 40.6574 52.8184 40.552 52.8418C40.4465 52.8535 40.3293 52.8652 40.2004 52.877C40.1535 52.8652 40.1242 52.877 40.1125 52.9121C40.1008 52.9355 40.0832 52.959 40.0598 52.9824C39.8605 53.0176 39.6789 53.0352 39.5148 53.0352C39.3625 53.0352 39.2336 53.0352 39.1281 53.0352C38.9875 53.0352 38.841 53.0527 38.6887 53.0879C38.548 53.1348 38.4191 53.1523 38.302 53.1406C37.423 53.0938 36.7316 52.7832 36.2277 52.209C35.7355 51.623 35.4602 50.8145 35.4016 49.7832C35.4133 49.7246 35.4016 49.6895 35.3664 49.6777C35.343 49.666 35.3195 49.6484 35.2961 49.625C35.2961 49.5078 35.3078 49.4082 35.3313 49.3262C35.3664 49.2441 35.3723 49.1387 35.3488 49.0098C35.6535 48.3652 35.9992 47.7676 36.3859 47.2168C36.7727 46.6543 37.2355 46.1621 37.7746 45.7402C37.8566 45.6699 37.927 45.5996 37.9855 45.5293C38.0441 45.459 38.0969 45.3887 38.1438 45.3184C38.2023 45.248 38.2668 45.1895 38.3371 45.1426C38.4074 45.084 38.4953 45.043 38.6008 45.0195C38.8469 44.7383 39.1398 44.4805 39.4797 44.2461C39.8195 44.0117 40.177 43.7891 40.552 43.5781C40.927 43.3555 41.2961 43.1387 41.6594 42.9277C42.0344 42.7051 42.3742 42.459 42.6789 42.1895C42.8078 42.248 42.9016 42.2656 42.9602 42.2422C43.0188 42.2188 43.0832 42.2188 43.1535 42.2422C43.2355 42.418 43.3469 42.541 43.4875 42.6113C43.6398 42.6816 43.7863 42.7578 43.927 42.8398C44.0793 42.9102 44.2199 42.998 44.3488 43.1035C44.4777 43.209 44.5773 43.3496 44.6477 43.5254C44.5773 43.5254 44.5422 43.5547 44.5422 43.6133C44.5539 43.6602 44.5715 43.7129 44.5949 43.7715C44.6184 43.8184 44.6242 43.8711 44.6125 43.9297C44.6125 43.9766 44.5715 44 44.4895 44C44.5012 44.0586 44.5363 44.0938 44.5949 44.1055C44.6652 44.1055 44.7004 44.1348 44.7004 44.1934C44.7004 44.252 44.6828 44.2988 44.6477 44.334C44.6242 44.3691 44.6242 44.4277 44.6477 44.5098C44.4133 44.6621 44.1496 44.8086 43.8566 44.9492C43.5754 45.0898 43.2766 45.2422 42.9602 45.4062C42.6555 45.5586 42.3332 45.7285 41.9934 45.916C41.6652 46.0918 41.343 46.2969 41.0266 46.5312C40.7102 46.7656 40.3879 47.0293 40.0598 47.3223C39.7316 47.6035 39.4152 47.9023 39.1105 48.2188C38.8059 48.5352 38.5188 48.8633 38.2492 49.2031C37.9797 49.5312 37.7512 49.8594 37.5637 50.1875C37.5871 50.2461 37.6105 50.293 37.634 50.3281C37.6691 50.3516 37.6984 50.3926 37.7219 50.4512C38.0969 50.4746 38.4426 50.4746 38.759 50.4512C39.0871 50.416 39.4152 50.4336 39.7434 50.5039C39.7785 50.4805 39.802 50.4453 39.8137 50.3984C39.8254 50.3516 39.8547 50.3164 39.9016 50.293C40.5695 50.2227 41.1906 50.1172 41.7648 49.9766C42.3391 49.8242 42.925 49.666 43.5227 49.502C43.4289 49.4668 43.341 49.4375 43.259 49.4141C43.1887 49.3789 43.1184 49.3496 43.048 49.3262C42.9895 49.2676 42.9895 49.2207 43.048 49.1855C43.1184 49.1387 43.177 49.0918 43.2238 49.0449C43.0598 48.9512 42.925 48.834 42.8195 48.6934C42.7258 48.5527 42.6672 48.3652 42.6438 48.1309C42.7141 48.0723 42.7492 48.002 42.7492 47.9199C42.7492 47.8379 42.7141 47.7734 42.6438 47.7266C42.5969 47.7148 42.5676 47.7148 42.5559 47.7266C42.5441 47.7383 42.5324 47.7559 42.5207 47.7793C42.5207 47.8027 42.5148 47.8262 42.5031 47.8496C42.4914 47.8613 42.4621 47.8555 42.4152 47.832C42.427 47.7266 42.4504 47.6387 42.4855 47.5684C42.5324 47.498 42.5676 47.416 42.591 47.3223L43.8039 46.5137C43.9328 46.6074 44.091 46.7129 44.2785 46.8301C44.466 46.9355 44.6594 47.0469 44.8586 47.1641C45.0695 47.2695 45.2805 47.3809 45.4914 47.498C45.7141 47.6035 45.9191 47.709 46.1066 47.8145C46.2707 47.8848 46.4172 47.9785 46.5461 48.0957C46.675 48.2129 46.798 48.3359 46.9152 48.4648C47.0324 48.582 47.1496 48.6992 47.2668 48.8164C47.3957 48.9336 47.5422 49.0332 47.7063 49.1152C47.6828 49.2676 47.6887 49.3906 47.7238 49.4844C47.759 49.5781 47.7707 49.6953 47.759 49.8359ZM60.8863 47.7266C60.8746 47.8672 60.8863 48.002 60.9215 48.1309C60.9566 48.2598 60.9977 48.3887 61.0445 48.5176C61.1031 48.6348 61.1559 48.7578 61.2027 48.8867C61.2496 49.0156 61.2848 49.1445 61.3082 49.2734C61.3316 49.4375 61.3316 49.6191 61.3082 49.8184C61.2848 50.0059 61.2438 50.1934 61.1852 50.3809C61.1266 50.5566 61.0504 50.7207 60.9566 50.873C60.8629 51.0137 60.7516 51.1191 60.6227 51.1895C60.4586 51.4004 60.2594 51.5645 60.025 51.6816C59.7906 51.7988 59.5738 51.9395 59.3746 52.1035C59.2457 52.1855 59.0992 52.2441 58.9352 52.2793C58.7828 52.3145 58.6246 52.3496 58.4605 52.3848C58.3316 52.4551 58.1793 52.5312 58.0035 52.6133C57.8277 52.6836 57.6461 52.7539 57.4586 52.8242C57.2711 52.8828 57.0836 52.9297 56.8961 52.9648C56.7086 52.9883 56.5445 52.9941 56.4039 52.9824C56.0523 53.1113 55.7066 53.1934 55.3668 53.2285C55.0387 53.2754 54.652 53.252 54.2066 53.1582C53.7848 53.2168 53.3922 53.1992 53.0289 53.1055C52.6773 53.0117 52.3609 52.8652 52.0797 52.666C51.8102 52.4551 51.5699 52.209 51.359 51.9277C51.1598 51.6348 50.9957 51.3301 50.8668 51.0137C50.773 50.3457 50.7965 49.7422 50.9371 49.2031C51.0777 48.6523 51.277 48.1484 51.5348 47.6914C51.8043 47.2227 52.109 46.7949 52.4488 46.4082C52.7887 46.0098 53.1168 45.623 53.4332 45.248C53.5035 45.2715 53.5563 45.2715 53.5914 45.248C53.6383 45.2129 53.6793 45.1719 53.7145 45.125C53.7496 45.0664 53.7848 45.0137 53.8199 44.9668C53.8668 44.9199 53.9195 44.8906 53.9781 44.8789C54.0602 44.7031 54.1773 44.5742 54.3297 44.4922C54.4938 44.3984 54.6227 44.2695 54.7164 44.1055C54.8219 44.082 54.9098 44.0469 54.9801 44C55.0504 43.9531 55.1148 43.9004 55.1734 43.8418C55.2438 43.7832 55.3141 43.7305 55.3844 43.6836C55.4547 43.625 55.5367 43.584 55.6305 43.5605V43.3672C55.8414 43.2734 55.9938 43.168 56.0875 43.0508C56.193 42.9219 56.316 42.7695 56.4566 42.5938C56.5621 42.582 56.6441 42.5762 56.7027 42.5762C56.773 42.5762 56.8727 42.5645 57.0016 42.541C57.0953 42.377 57.1773 42.2539 57.2477 42.1719C57.3297 42.0898 57.4469 42.002 57.5992 41.9082C57.7398 41.9785 57.8922 42.0254 58.0563 42.0488C58.232 42.0723 58.3844 42.1484 58.5133 42.2773C58.525 42.3945 58.5602 42.4883 58.6188 42.5586C58.6773 42.6172 58.7418 42.6758 58.8121 42.7344C58.8824 42.7812 58.9469 42.834 59.0055 42.8926C59.0758 42.9512 59.1227 43.0332 59.1461 43.1387C59.193 43.1504 59.2223 43.1445 59.234 43.1211C59.2574 43.0977 59.2926 43.0918 59.3395 43.1035C59.3746 43.2676 59.4156 43.3789 59.4625 43.4375C59.5094 43.4844 59.5563 43.584 59.6031 43.7363C59.5445 43.8535 59.4977 43.9766 59.4625 44.1055C59.4391 44.2227 59.3688 44.3105 59.2516 44.3691C59.2398 44.4512 59.2633 44.498 59.3219 44.5098C59.3805 44.5098 59.4156 44.5391 59.4273 44.5977C59.4391 44.7031 59.4215 44.7793 59.3746 44.8262C59.6559 45.2832 59.9078 45.7695 60.1305 46.2852C60.3531 46.7891 60.6051 47.2695 60.8863 47.7266ZM58.6891 49.3965C58.7359 49.2676 58.7945 49.1621 58.8648 49.0801C58.9469 48.998 58.9938 48.875 59.0055 48.7109C58.9469 48.6172 58.9117 48.5469 58.9 48.5C58.8883 48.4414 58.8824 48.3535 58.8824 48.2363C58.6246 47.873 58.402 47.4863 58.2145 47.0762C58.027 46.6543 57.816 46.2617 57.5816 45.8984C57.5582 45.9453 57.5172 45.9922 57.4586 46.0391C57.4 46.0859 57.3355 46.0742 57.2652 46.0039C57.2418 46.0977 57.2008 46.168 57.1422 46.2148C57.0836 46.25 57.0191 46.2676 56.9488 46.2676C56.8785 46.2559 56.8023 46.2383 56.7203 46.2148C56.65 46.1797 56.5855 46.1387 56.527 46.0918C56.1871 46.3613 55.8473 46.625 55.5074 46.8828C55.1676 47.1406 54.8629 47.4395 54.5934 47.7793C54.5465 47.8027 54.5172 47.8145 54.5055 47.8145C54.4938 47.8027 54.4586 47.8086 54.4 47.832C54.3063 48.0547 54.1891 48.2598 54.0484 48.4473C53.9195 48.623 53.7906 48.8047 53.6617 48.9922C53.5328 49.1797 53.4215 49.3789 53.3277 49.5898C53.234 49.8008 53.1813 50.0469 53.1695 50.3281C53.3688 50.4922 53.6031 50.5918 53.8727 50.627C54.1422 50.6621 54.4176 50.668 54.6988 50.6445C54.9918 50.6211 55.273 50.5859 55.5426 50.5391C55.8238 50.4805 56.0816 50.4512 56.316 50.4512C56.8082 50.334 57.2301 50.1816 57.5816 49.9941C57.9332 49.7949 58.3023 49.5957 58.6891 49.3965Z" fill="#252A34"/>
</svg>
