<svg width="35" height="35" viewBox="0 0 35 35" fill="none" xmlns="http://www.w3.org/2000/svg">
<path fill-rule="evenodd" clip-rule="evenodd" d="M32.0833 8.75121C32.0833 5.17605 28.8966 2.44208 25.363 2.98571L15.1547 4.55622C12.309 4.99402 10.2083 7.44256 10.2083 10.3217V23.101C9.54534 22.7861 8.80367 22.6098 8.02084 22.6098C5.20189 22.6098 2.91667 24.895 2.91667 27.714C2.91667 30.5329 5.20189 32.8182 8.02084 32.8182C10.8397 32.8182 13.1249 30.533 13.125 27.7142V10.3217C13.125 8.88214 14.1753 7.65787 15.5982 7.43897L25.8065 5.86846C27.5733 5.59665 29.1667 6.96363 29.1667 8.75121V18.726C28.5037 18.4111 27.762 18.2348 26.9792 18.2348C24.1602 18.2348 21.875 20.52 21.875 23.339C21.875 26.1579 24.1602 28.4432 26.9792 28.4432C29.7981 28.4432 32.0832 26.158 32.0833 23.3392V8.75121ZM29.1667 23.339C29.1667 22.1309 28.1873 21.1515 26.9792 21.1515C25.7711 21.1515 24.7917 22.1309 24.7917 23.339C24.7917 24.5471 25.7711 25.5265 26.9792 25.5265C28.1872 25.5265 29.1666 24.547 29.1667 23.339ZM10.2083 27.714C10.2083 26.5059 9.22896 25.5265 8.02084 25.5265C6.81272 25.5265 5.83334 26.5059 5.83334 27.714C5.83334 28.9221 6.81272 29.9015 8.02084 29.9015C9.2289 29.9015 10.2082 28.922 10.2083 27.714Z" fill="#252A34"/>
</svg>
