<svg width="30" height="30" viewBox="0 0 30 30" fill="none" xmlns="http://www.w3.org/2000/svg">
<path d="M11.25 11.25H13.75V18.75H11.25V11.25Z" fill="#252A34"/>
<path d="M18.75 18.75H16.25V11.25H18.75V18.75Z" fill="#252A34"/>
<path fill-rule="evenodd" clip-rule="evenodd" d="M28.75 15C28.75 22.5939 22.5939 28.75 15 28.75C7.40608 28.75 1.25 22.5939 1.25 15C1.25 7.40608 7.40608 1.25 15 1.25C22.5939 1.25 28.75 7.40608 28.75 15ZM26.25 15C26.25 21.2132 21.2132 26.25 15 26.25C8.7868 26.25 3.75 21.2132 3.75 15C3.75 8.7868 8.7868 3.75 15 3.75C21.2132 3.75 26.25 8.7868 26.25 15Z" fill="#252A34"/>
</svg>
