<svg width="35" height="35" viewBox="0 0 35 35" fill="none" xmlns="http://www.w3.org/2000/svg">
<path fill-rule="evenodd" clip-rule="evenodd" d="M29.8445 3.05011C29.275 2.48059 28.3517 2.48059 27.7821 3.05011L27.7412 3.09106C27.6213 3.21091 27.4395 3.24044 27.2821 3.17748C25.7061 2.54702 23.8375 2.86993 22.5612 4.1462L6.57374 20.1338C6.41753 20.29 6.41753 20.5432 6.57374 20.6995L14.2576 28.3833C14.4138 28.5395 14.6671 28.5395 14.8233 28.3833L30.8108 12.3958C32.087 11.1195 32.4099 9.25095 31.7795 7.67496C31.7166 7.51754 31.7461 7.33567 31.866 7.2158L31.9069 7.1749C32.4764 6.60538 32.4764 5.68201 31.9069 5.1125L29.8445 3.05011ZM29.2293 9.28682C29.3855 9.44303 29.3855 9.69629 29.2293 9.8525L14.8233 24.2586C14.6671 24.4148 14.4138 24.4148 14.2576 24.2586L10.6985 20.6995C10.5423 20.5432 10.5423 20.29 10.6985 20.1338L25.1045 5.72771C25.2607 5.5715 25.514 5.5715 25.6702 5.72771L29.2293 9.28682Z" fill="white"/>
<path d="M2.13367 33.2848C1.83507 33.3663 1.56108 33.0923 1.64253 32.7937L4.37108 22.7903C4.4519 22.494 4.82268 22.3956 5.03984 22.6128L12.3142 29.8881C12.5313 30.1052 12.4328 30.476 12.1365 30.5568L2.13367 33.2848Z" fill="white"/>
</svg>
