<svg width="24" height="24" viewBox="0 0 24 24" fill="none" xmlns="http://www.w3.org/2000/svg">
<path fill-rule="evenodd" clip-rule="evenodd" d="M16.8688 15.4575C19.3126 12.319 19.0918 7.77832 16.2067 4.89313C13.0825 1.76894 8.01714 1.76894 4.89295 4.89313C1.76876 8.01733 1.76876 13.0826 4.89295 16.2068C7.77813 19.092 12.3188 19.3128 15.4573 16.869C15.4708 16.8843 15.4849 16.8993 15.4996 16.9139L19.7422 21.1566C20.1327 21.5471 20.7659 21.5471 21.1564 21.1566C21.5469 20.7661 21.5469 20.1329 21.1564 19.7424L16.9138 15.4997C16.8991 15.4851 16.8841 15.471 16.8688 15.4575ZM14.7924 6.30735C17.1356 8.65049 17.1356 12.4495 14.7924 14.7926C12.4493 17.1358 8.65031 17.1358 6.30716 14.7926C3.96402 12.4495 3.96402 8.65049 6.30716 6.30735C8.65031 3.9642 12.4493 3.9642 14.7924 6.30735Z" fill="#252A34"/>
</svg>
