<svg width="36" height="35" viewBox="0 0 36 35" fill="none" xmlns="http://www.w3.org/2000/svg">
<path fill-rule="evenodd" clip-rule="evenodd" d="M23.8333 10.2083C23.8333 13.43 21.2217 16.0417 18 16.0417C14.7783 16.0417 12.1667 13.43 12.1667 10.2083C12.1667 6.98667 14.7783 4.375 18 4.375C21.2217 4.375 23.8333 6.98667 23.8333 10.2083ZM20.9167 10.2083C20.9167 11.8192 19.6108 13.125 18 13.125C16.3892 13.125 15.0833 11.8192 15.0833 10.2083C15.0833 8.5975 16.3892 7.29167 18 7.29167C19.6108 7.29167 20.9167 8.5975 20.9167 10.2083Z" fill="#252A34"/>
<path d="M25.2917 21.875C25.2917 21.0696 24.6387 20.4167 23.8333 20.4167H12.1667C11.3613 20.4167 10.7083 21.0696 10.7083 21.875V30.625H7.79167V21.875C7.79167 19.4588 9.75042 17.5 12.1667 17.5H23.8333C26.2496 17.5 28.2083 19.4588 28.2083 21.875V30.625H25.2917V21.875Z" fill="#252A34"/>
</svg>
