<svg width="30" height="30" viewBox="0 0 30 30" fill="none" xmlns="http://www.w3.org/2000/svg">
<path d="M23.75 14.212C23.75 17.5737 21.0248 20.2989 17.663 20.2989V18.7772C20.1843 18.7772 22.2283 16.7333 22.2283 14.212C22.2283 11.6907 20.1843 9.64674 17.663 9.64674V8.125C21.0248 8.125 23.75 10.8502 23.75 14.212Z" fill="#252A34"/>
<path d="M20.7065 14.212C20.7065 15.8928 19.3439 17.2554 17.663 17.2554V15.7337C18.5035 15.7337 19.1848 15.0524 19.1848 14.212C19.1848 13.3715 18.5035 12.6902 17.663 12.6902V11.1685C19.3439 11.1685 20.7065 12.5311 20.7065 14.212Z" fill="#252A34"/>
<path fill-rule="evenodd" clip-rule="evenodd" d="M12.337 17.2554L16.9022 20.2989V8.125L12.337 11.1685H9.29348C7.61261 11.1685 6.25 12.5311 6.25 14.212C6.25 15.8928 7.61261 17.2554 9.29348 17.2554H12.337ZM9.29348 12.6902H12.337L15.3804 10.788V17.6359L12.337 15.7337H9.29348C8.45305 15.7337 7.77174 15.0524 7.77174 14.212C7.77174 13.3715 8.45305 12.6902 9.29348 12.6902Z" fill="#252A34"/>
<path d="M23.75 14.212C23.75 17.5737 21.0248 20.2989 17.663 20.2989V18.7772C20.1843 18.7772 22.2283 16.7333 22.2283 14.212C22.2283 11.6907 20.1843 9.64674 17.663 9.64674V8.125C21.0248 8.125 23.75 10.8502 23.75 14.212Z" stroke="#252A34" stroke-width="0.3"/>
<path d="M20.7065 14.212C20.7065 15.8928 19.3439 17.2554 17.663 17.2554V15.7337C18.5035 15.7337 19.1848 15.0524 19.1848 14.212C19.1848 13.3715 18.5035 12.6902 17.663 12.6902V11.1685C19.3439 11.1685 20.7065 12.5311 20.7065 14.212Z" stroke="#252A34" stroke-width="0.3"/>
<path fill-rule="evenodd" clip-rule="evenodd" d="M12.337 17.2554L16.9022 20.2989V8.125L12.337 11.1685H9.29348C7.61261 11.1685 6.25 12.5311 6.25 14.212C6.25 15.8928 7.61261 17.2554 9.29348 17.2554H12.337ZM9.29348 12.6902H12.337L15.3804 10.788V17.6359L12.337 15.7337H9.29348C8.45305 15.7337 7.77174 15.0524 7.77174 14.212C7.77174 13.3715 8.45305 12.6902 9.29348 12.6902Z" stroke="#252A34" stroke-width="0.3"/>
<circle cx="15.625" cy="14.375" r="13.225" stroke="#252A34" stroke-width="2.3"/>
</svg>
